<?xml version="1.0" encoding="utf-8"?>
<!-- Generator: Adobe Illustrator 19.2.0, SVG Export Plug-In . SVG Version: 6.00 Build 0)  -->
<svg version="1.1" id="Layer_1" xmlns="http://www.w3.org/2000/svg" xmlns:xlink="http://www.w3.org/1999/xlink" x="0px" y="0px"
	 viewBox="0 0 24 24" style="enable-background:new 0 0 24 24;" xml:space="preserve">
<style type="text/css">
	.st0{fill:#333333;}
</style>
<g>
	<path class="st0" d="M8,6H7V0H6v6H5V0H3v7c0,0.6,0.4,1,1,1v15c0,0.6,0.4,1,1,1h3c0.6,0,1-0.4,1-1V8c0.6,0,1-0.4,1-1V0H8V6z M7,22H6
		V8h1V22z"/>
	<path class="st0" d="M15,0c-0.6,0-1,0.4-1,1v11v11c0,0.5,0.4,1,1,1h3c0.6,0,1-0.5,1-1V12c0,0,2-2,2-5C21,2,15,0,15,0z M17,22h-1v-9
		h1V22z M17,12h-1V2.7c0,0,3,1.3,3,4.3S17,12,17,12z"/>
</g>
</svg>
