<?xml version="1.0" ?><svg data-name="Layer 1" id="Layer_1" viewBox="0 0 70 70" xmlns="http://www.w3.org/2000/svg"><defs><style>.cls-1{fill:#9c10d1;}.cls-2{fill:#494b4d;}.cls-3{fill:#fff;}</style></defs><title/><rect class="cls-1" height="48" width="47.7" x="11.65" y="11"/><path class="cls-2" d="M64.62,12.22H5a1,1,0,1,1,0-2H64.62a1,1,0,0,1,0,2Z"/><path class="cls-2" d="M65,59.22H5.38a1,1,0,1,1,0-2H65a1,1,0,0,1,0,2Z"/><path class="cls-2" d="M12,66a1,1,0,0,1-1-1V5a1,1,0,0,1,2,0V65A1,1,0,0,1,12,66Z"/><path class="cls-2" d="M58.66,66a1,1,0,0,1-1-1V5a1,1,0,0,1,2,0V65A1,1,0,0,1,58.66,66Z"/><path class="cls-3" d="M41.54,28.73a.71.71,0,0,1,.95.8l-2.34,11.2a.74.74,0,0,1-1.16.44l-3.54-2.6-1.8,1.84a.6.6,0,0,1-1-.24l-1.3-4.13-3.49-1a.5.5,0,0,1,0-.95Zm-1.72,2.48a.17.17,0,0,0-.2-.27L32.1,35.62a.34.34,0,0,0-.15.39l1,4.51a.07.07,0,0,0,.13,0l.23-3.43a.34.34,0,0,1,.11-.22Zm0,0"/></svg>