<?xml version="1.0" ?><svg data-name="Layer 1" id="Layer_1" viewBox="0 0 70 70" xmlns="http://www.w3.org/2000/svg"><defs><style>.cls-1{fill:#cf4c3c;}.cls-2{fill:#494b4d;}.cls-3{fill:#fff;}</style></defs><title/><rect class="cls-1" height="48" width="47.7" x="11.65" y="11"/><path class="cls-2" d="M64.62,12.22H5a1,1,0,1,1,0-2H64.62a1,1,0,0,1,0,2Z"/><path class="cls-2" d="M65,59.22H5.38a1,1,0,1,1,0-2H65a1,1,0,0,1,0,2Z"/><path class="cls-2" d="M12,66a1,1,0,0,1-1-1V5a1,1,0,0,1,2,0V65A1,1,0,0,1,12,66Z"/><path class="cls-2" d="M58.66,66a1,1,0,0,1-1-1V5a1,1,0,0,1,2,0V65A1,1,0,0,1,58.66,66Z"/><path class="cls-3" d="M31.5,36.55h3.66a4.66,4.66,0,1,1-1.26-5,.5.5,0,0,0,.69,0l1.35-1.27a.5.5,0,0,0,0-.73,7.47,7.47,0,0,0-5-2.05,7.5,7.5,0,1,0,7.34,7.92s0-1.72,0-1.72H31.5a.5.5,0,0,0-.5.5V36a.5.5,0,0,0,.5.5Zm0,0"/><path class="cls-3" d="M44.48,33.87v-1.8a.44.44,0,0,0-.44-.44H42.53a.44.44,0,0,0-.44.44v1.8h-1.8a.44.44,0,0,0-.44.44v1.51a.44.44,0,0,0,.44.44h1.8v1.8a.44.44,0,0,0,.44.44H44a.44.44,0,0,0,.44-.44v-1.8h1.8a.44.44,0,0,0,.44-.44V34.31a.44.44,0,0,0-.44-.44Zm0,0"/></svg>