<?xml version="1.0" ?><svg data-name="Layer 1" id="Layer_1" viewBox="0 0 70 70" xmlns="http://www.w3.org/2000/svg"><defs><style>.cls-1{fill:#4376b1;}.cls-2{fill:#494b4d;}.cls-3{fill:#fff;}</style></defs><title/><rect class="cls-1" height="48" width="47.7" x="11.65" y="11"/><path class="cls-2" d="M64.62,12.22H5a1,1,0,1,1,0-2H64.62a1,1,0,0,1,0,2Z"/><path class="cls-2" d="M65,59.22H5.38a1,1,0,1,1,0-2H65a1,1,0,0,1,0,2Z"/><path class="cls-2" d="M12,66a1,1,0,0,1-1-1V5a1,1,0,0,1,2,0V65A1,1,0,0,1,12,66Z"/><path class="cls-2" d="M58.66,66a1,1,0,0,1-1-1V5a1,1,0,0,1,2,0V65A1,1,0,0,1,58.66,66Z"/><path class="cls-3" d="M41.14,27.5H28.86a1.36,1.36,0,0,0-1.36,1.36V41.14a1.36,1.36,0,0,0,1.36,1.36H41.14a1.36,1.36,0,0,0,1.36-1.36V28.86a1.36,1.36,0,0,0-1.36-1.36Zm-9,13a.4.4,0,0,1-.4.4H30.07a.39.39,0,0,1-.39-.4v-7a.39.39,0,0,1,.39-.4h1.68a.39.39,0,0,1,.39.4Zm-1.24-8.11a1.6,1.6,0,1,1,1.6-1.6,1.6,1.6,0,0,1-1.6,1.6Zm10,8.14a.36.36,0,0,1-.36.36h-1.8a.36.36,0,0,1-.36-.36V37.18c0-.49.14-2.16-1.29-2.16-1.11,0-1.34,1.14-1.38,1.65v3.81a.36.36,0,0,1-.36.36H33.62a.36.36,0,0,1-.36-.36V33.37a.36.36,0,0,1,.36-.36h1.74a.36.36,0,0,1,.36.36V34a2.48,2.48,0,0,1,2.33-1.1c2.89,0,2.87,2.7,2.87,4.18v3.41Zm0,0"/></svg>