<svg id="Layer_1" data-name="Layer 1" xmlns="http://www.w3.org/2000/svg" viewBox="0 0 914 613"><defs><style>.cls-1{fill:#fcb1c1;}.cls-2{fill:none;stroke:#fcb1c1;stroke-miterlimit:10;stroke-width:12px;}</style></defs><title>picture</title><path class="cls-1" d="M373.55,245.3a8.53,8.53,0,1,0,12.07-12.07,22.26,22.26,0,0,1,0-31.44,39.27,39.27,0,0,0,0-55.57,8.53,8.53,0,0,0-12.07,12.07,22.21,22.21,0,0,1,0,31.44A39.34,39.34,0,0,0,373.55,245.3Z" transform="translate(-30 -12)"/><path class="cls-1" d="M561.29,245.3a8.53,8.53,0,1,0,12.07-12.07,22.26,22.26,0,0,1,0-31.44,39.27,39.27,0,0,0,0-55.57,8.53,8.53,0,0,0-12.07,12.07,22.21,22.21,0,0,1,0,31.44A39.34,39.34,0,0,0,561.29,245.3Z" transform="translate(-30 -12)"/><path class="cls-1" d="M467.42,194.1A8.53,8.53,0,0,0,479.48,182a22.26,22.26,0,0,1,0-31.44,39.27,39.27,0,0,0,0-55.57,8.53,8.53,0,1,0-12.07,12.07,22.21,22.21,0,0,1,0,31.44A39.34,39.34,0,0,0,467.42,194.1Z" transform="translate(-30 -12)"/><path class="cls-1" d="M433.24,311.9a8.92,8.92,0,0,0,1.89-.2,171.87,171.87,0,0,1,37.73-4.16H473a8.53,8.53,0,1,0,0-17.07h-0.12A189.19,189.19,0,0,0,431.37,295,8.53,8.53,0,0,0,433.24,311.9Z" transform="translate(-30 -12)"/><path class="cls-1" d="M300.77,452.45a7.92,7.92,0,0,0,1.54.15,8.54,8.54,0,0,0,8.39-7c8.87-48.62,38.17-91.89,78.39-115.71a8.53,8.53,0,0,0-8.7-14.69c-44.41,26.31-76.73,73.91-86.48,127.33A8.52,8.52,0,0,0,300.77,452.45Z" transform="translate(-30 -12)"/><path class="cls-1" d="M691.62,440.85c-15.46-90.8-86.25-163-176.36-180.43a39.25,39.25,0,0,0,.37-4.1,42.67,42.67,0,1,0-85.33,0,37.06,37.06,0,0,0,.37,4.1C340.55,277.9,269.77,350,254.31,440.85c-17.83,10.09-37.34,25-37.34,41.62C217,525.86,349.33,555,473,555s256-29.14,256-72.53C729,465.8,709.46,450.94,691.62,440.85Zm-244.21-183c0-.49-0.05-1-0.05-1.47a25.6,25.6,0,1,1,51.2,0c0,0.49,0,1-.05,1.47l-1.19-.1c-2.94-.32-5.89-0.55-8.86-0.76-1.09-.08-2.18-0.19-3.27-0.25-4-.22-8.12-0.35-12.22-0.35s-8.17.13-12.22,0.35c-1.09.06-2.18,0.17-3.27,0.25-3,.2-5.92.44-8.86,0.76C448.22,257.74,447.82,257.75,447.42,257.8Zm-5.18,17.9c4.58-.68,9.19-1.18,13.82-1.55l2.84-.21a209.41,209.41,0,0,1,28.15,0l2.84,0.21c4.63,0.38,9.23.87,13.82,1.55,88.9,13.44,159.21,84.24,172,173.36,0.39,2.74.71,5.49,1,8.23,0.09,0.95.22,1.89,0.31,2.83,0.33,3.78.58,7.56,0.7,11.34a910.65,910.65,0,0,1-409.38,0q0.19-5.67.7-11.34c0.09-.95.2-1.89,0.31-2.83,0.28-2.76.6-5.5,1-8.23C283,359.95,353.34,289.14,442.24,275.7ZM473,537.93C327.08,537.93,234,501.5,234,482.47c0-3.27,4-10.47,17.61-19.87,0,0.49,0,1-.05,1.45-0.29,4.68-.49,9.39-0.49,14.15v6.72l6.55,1.58A924.1,924.1,0,0,0,473,511.86,923.64,923.64,0,0,0,688.29,486.5l6.55-1.58V478.2c0-4.76-.2-9.46-0.49-14.15,0-.49,0-1-0.05-1.45,13.57,9.4,17.61,16.6,17.61,19.87C711.9,501.5,618.85,537.93,473,537.93Z" transform="translate(-30 -12)"/><rect class="cls-2" x="6" y="6" width="902" height="601"/></svg>