<?xml version="1.0" ?><svg data-name="Layer 1" id="Layer_1" viewBox="0 0 70 70" xmlns="http://www.w3.org/2000/svg"><defs><style>.cls-1{fill:#d74527;}.cls-2{fill:#494b4d;}.cls-3{fill:#fff;}</style></defs><title/><rect class="cls-1" height="48" width="47.7" x="11.65" y="11"/><path class="cls-2" d="M64.62,12.22H5a1,1,0,1,1,0-2H64.62a1,1,0,0,1,0,2Z"/><path class="cls-2" d="M65,59.22H5.38a1,1,0,1,1,0-2H65a1,1,0,0,1,0,2Z"/><path class="cls-2" d="M12,66a1,1,0,0,1-1-1V5a1,1,0,0,1,2,0V65A1,1,0,0,1,12,66Z"/><path class="cls-2" d="M58.66,66a1,1,0,0,1-1-1V5a1,1,0,0,1,2,0V65A1,1,0,0,1,58.66,66Z"/><path class="cls-3" d="M30.38,35.38s.29.09.16.63l-.33,1.09a.48.48,0,0,1-.54,0s-2.64-.94-2.1-5.35a6.82,6.82,0,0,1,4.22-5.14,9.61,9.61,0,0,1,7.25.18,6.81,6.81,0,0,1,3.43,6.23c-.31,4-2.29,5.44-2.7,5.8s-4,2.42-6-.23l-1,3.69A6.19,6.19,0,0,1,31.79,44s-1.25-.36-1.3-.51a10.12,10.12,0,0,1,.13-2.32l1.5-6.21A4.86,4.86,0,0,1,31.95,32s.76-2.06,2.34-1.7c0,0,1.42.33,1.12,2.19l-.84,2.93s-.38,1.37.25,1.93c0,0,1.07,1.37,3,.1,0,0,1.35-.53,1.88-4,0,0,.43-3.13-1.27-4.43,0,0-1.93-1.86-5.44-.71A5.18,5.18,0,0,0,29.76,32,4.34,4.34,0,0,0,30.38,35.38Z"/></svg>