<?xml version="1.0" ?><svg data-name="Layer 1" id="Layer_1" viewBox="0 0 70 70" xmlns="http://www.w3.org/2000/svg"><defs><style>.cls-1{fill:#3f4da0;}.cls-2{fill:#494b4d;}.cls-3{fill:#eef0f3;}</style></defs><title/><rect class="cls-1" height="48" width="47.7" x="11.65" y="11"/><path class="cls-2" d="M64.62,12.22H5a1,1,0,1,1,0-2H64.62a1,1,0,0,1,0,2Z"/><path class="cls-2" d="M65,59.22H5.38a1,1,0,1,1,0-2H65a1,1,0,0,1,0,2Z"/><path class="cls-2" d="M12,66a1,1,0,0,1-1-1V5a1,1,0,0,1,2,0V65A1,1,0,0,1,12,66Z"/><path class="cls-2" d="M58.66,66a1,1,0,0,1-1-1V5a1,1,0,0,1,2,0V65A1,1,0,0,1,58.66,66Z"/><path class="cls-3" d="M35.75,25v5.05H40.5v3.14H35.75v5.13a8.17,8.17,0,0,0,.18,2.23,1.53,1.53,0,0,0,.69.79,2.89,2.89,0,0,0,1.52.4,5.46,5.46,0,0,0,3-1v3.15a11.88,11.88,0,0,1-2.32.85,9.87,9.87,0,0,1-2.25.24,7.74,7.74,0,0,1-2.42-.35,5.24,5.24,0,0,1-1.8-1,3.57,3.57,0,0,1-1-1.36,5.91,5.91,0,0,1-.29-2.09v-7H28.84V30.36a5.85,5.85,0,0,0,2-1.1,5.46,5.46,0,0,0,1.35-1.72,7.76,7.76,0,0,0,.7-2.55Z"/></svg>