<?xml version="1.0" ?><svg data-name="Layer 1" id="Layer_1" viewBox="0 0 70 70" xmlns="http://www.w3.org/2000/svg"><defs><style>.cls-1{fill:#1aaae2;}.cls-2{fill:#494b4d;}.cls-3{fill:#fff;}</style></defs><title/><rect class="cls-1" height="48" width="47.7" x="12.07" y="11"/><path class="cls-2" d="M65,12.22H5.42a1,1,0,1,1,0-2H65a1,1,0,0,1,0,2Z"/><path class="cls-2" d="M65.42,59.22H5.8a1,1,0,1,1,0-2H65.42a1,1,0,0,1,0,2Z"/><path class="cls-2" d="M12.38,66a1,1,0,0,1-1-1V5a1,1,0,0,1,2,0V65A1,1,0,0,1,12.38,66Z"/><path class="cls-2" d="M59.08,66a1,1,0,0,1-1-1V5a1,1,0,0,1,2,0V65A1,1,0,0,1,59.08,66Z"/><path class="cls-3" d="M45,29.26l-1.87,2c0,7.81-6.23,11.41-10.42,11.25s-6-1.73-6-1.73a7.67,7.67,0,0,0,5.49-1.51,3.88,3.88,0,0,1-3.43-2.64,3.35,3.35,0,0,0,1.66-.1,3.72,3.72,0,0,1-2.94-3.74,4.79,4.79,0,0,0,1.63.49,3.85,3.85,0,0,1-1.12-5,10.75,10.75,0,0,0,7.74,4,3.72,3.72,0,0,1,.94-3.58,3.85,3.85,0,0,1,5.44.09,5.34,5.34,0,0,0,2.38-.94c-.1,1.1-1.59,2.15-1.59,2.15A7.47,7.47,0,0,0,45,29.26Zm0,0"/></svg>