<?xml version="1.0" ?><svg data-name="Layer 1" id="Layer_1" viewBox="0 0 70 70" xmlns="http://www.w3.org/2000/svg"><defs><style>.cls-1{fill:#b00;}.cls-2{fill:#494b4d;}.cls-3{fill:#fff;}</style></defs><title/><rect class="cls-1" height="48" width="47.7" x="11.65" y="11"/><path class="cls-2" d="M64.62,12.22H5a1,1,0,1,1,0-2H64.62a1,1,0,0,1,0,2Z"/><path class="cls-2" d="M65,59.22H5.38a1,1,0,1,1,0-2H65a1,1,0,0,1,0,2Z"/><path class="cls-2" d="M12,66a1,1,0,0,1-1-1V5a1,1,0,0,1,2,0V65A1,1,0,0,1,12,66Z"/><path class="cls-2" d="M58.66,66a1,1,0,0,1-1-1V5a1,1,0,0,1,2,0V65A1,1,0,0,1,58.66,66Z"/><path class="cls-3" d="M33.37,39.1,30.6,42.47A.9.9,0,0,0,31,43.89L33.68,45a.91.91,0,0,0,1.24-.82L35,39.72a.94.94,0,0,0-1.66-.62Zm0,0"/><path class="cls-3" d="M32.91,35.74,28.8,34.27a.91.91,0,0,0-1.21.82L27.5,38a.9.9,0,0,0,1.19.89l4.2-1.38a.94.94,0,0,0,0-1.77Zm0,0"/><path class="cls-3" d="M37.62,36.22l4.21-1.16a.9.9,0,0,0,.52-1.37l-1.6-2.43a.9.9,0,0,0-1.48,0l-2.64,3.54a.94.94,0,0,0,1,1.46Zm0,0"/><path class="cls-3" d="M34.57,26.1A1.07,1.07,0,0,0,33.22,25l-3.33.91a1.07,1.07,0,0,0-.59,1.66l3.82,6.62a1,1,0,0,0,.11.15A1.11,1.11,0,0,0,35.11,34a1.09,1.09,0,0,0,0-.44Zm0,0"/><path class="cls-3" d="M41.86,39.25l-4.23-1.3a.94.94,0,0,0-1,1.43L39.1,43a.91.91,0,0,0,1.46,0l1.75-2.32a.9.9,0,0,0-.46-1.41Zm0,0"/></svg>